<svg width="16" height="16" viewBox="0 0 16 16" fill="none" xmlns="http://www.w3.org/2000/svg">
<path d="M1.55316 12.8696C1.21993 12.8696 1 12.6662 1 12.3437C1 12.2035 1.03332 12.0702 1.08664 11.902L3.82577 3.84562C3.99238 3.3548 4.22564 3.13043 4.65217 3.13043C5.0787 3.13043 5.31196 3.3548 5.47858 3.84562L8.21771 11.902C8.27102 12.0562 8.30435 12.2035 8.30435 12.3367C8.30435 12.6662 8.08442 12.8696 7.74452 12.8696C7.42463 12.8696 7.24468 12.7083 7.11806 12.2946L6.35163 9.90365H2.94605L2.17963 12.2946C2.053 12.7153 1.87306 12.8696 1.55316 12.8696ZM3.25928 8.91501H6.0384L4.67217 4.65195H4.62552L3.25928 8.91501Z" fill="#2F2F2F"/>
<path d="M13.9667 11.8126C13.5926 12.4993 12.9572 12.8696 12.1673 12.8696C10.9499 12.8696 10.1304 11.9944 10.1304 10.6951C10.1304 9.40925 10.9559 8.60813 12.3277 8.60813H13.9786V7.92146C13.9786 7.01262 13.4976 6.5481 12.6008 6.5481C12.0723 6.5481 11.716 6.7568 11.3419 7.24151C11.1994 7.43001 11.0628 7.49733 10.8787 7.49733C10.6411 7.49733 10.4808 7.31557 10.4808 7.03955C10.4808 6.64235 10.7243 6.25189 11.2231 5.92875C11.5854 5.69313 12.0545 5.56521 12.6662 5.56521C14.1686 5.56521 15 6.4 15 7.91472V12.1829C15 12.5868 14.8159 12.8224 14.5012 12.8224C14.1983 12.8224 14.0201 12.5935 14.0083 12.2098V11.8126H13.9667ZM11.1756 10.6682C11.1756 11.402 11.6863 11.9001 12.4464 11.9001C13.3075 11.9001 13.9786 11.2269 13.9786 10.345V9.5439H12.3811C11.6151 9.5439 11.1756 9.94782 11.1756 10.6682Z" fill="#2F2F2F"/>
<path d="M1.55316 12.8696C1.21993 12.8696 1 12.6662 1 12.3437C1 12.2035 1.03332 12.0702 1.08664 11.902L3.82577 3.84562C3.99238 3.3548 4.22564 3.13043 4.65217 3.13043C5.0787 3.13043 5.31196 3.3548 5.47858 3.84562L8.21771 11.902C8.27102 12.0562 8.30435 12.2035 8.30435 12.3367C8.30435 12.6662 8.08442 12.8696 7.74452 12.8696C7.42463 12.8696 7.24468 12.7083 7.11806 12.2946L6.35163 9.90365H2.94605L2.17963 12.2946C2.053 12.7153 1.87306 12.8696 1.55316 12.8696ZM3.25928 8.91501H6.0384L4.67217 4.65195H4.62552L3.25928 8.91501Z" stroke="#2F2F2F" stroke-width="0.3"/>
<path d="M13.9667 11.8126C13.5926 12.4993 12.9572 12.8696 12.1673 12.8696C10.9499 12.8696 10.1304 11.9944 10.1304 10.6951C10.1304 9.40925 10.9559 8.60813 12.3277 8.60813H13.9786V7.92146C13.9786 7.01262 13.4976 6.5481 12.6008 6.5481C12.0723 6.5481 11.716 6.7568 11.3419 7.24151C11.1994 7.43001 11.0628 7.49733 10.8787 7.49733C10.6411 7.49733 10.4808 7.31557 10.4808 7.03955C10.4808 6.64235 10.7243 6.25189 11.2231 5.92875C11.5854 5.69313 12.0545 5.56521 12.6662 5.56521C14.1686 5.56521 15 6.4 15 7.91472V12.1829C15 12.5868 14.8159 12.8224 14.5012 12.8224C14.1983 12.8224 14.0201 12.5935 14.0083 12.2098V11.8126H13.9667ZM11.1756 10.6682C11.1756 11.402 11.6863 11.9001 12.4464 11.9001C13.3075 11.9001 13.9786 11.2269 13.9786 10.345V9.5439H12.3811C11.6151 9.5439 11.1756 9.94782 11.1756 10.6682Z" stroke="#2F2F2F" stroke-width="0.3"/>
</svg>
