<svg width="16" height="16" viewBox="0 0 16 16" fill="none" xmlns="http://www.w3.org/2000/svg">
<path d="M13.1462 1.83327C13.5168 1.48122 14.1038 1.49627 14.4559 1.86685C14.8079 2.23742 14.7929 2.8245 14.4223 3.17655L2.85368 14.1667C2.48311 14.5188 1.89603 14.5037 1.54398 14.1332C1.19193 13.7626 1.20699 13.1755 1.57756 12.8235L13.1462 1.83327Z" fill="#2F2F2F"/>
<path d="M1.87363 12.3382C1.55696 12.3382 1.34797 12.145 1.34797 11.8385C1.34797 11.7052 1.37963 11.5786 1.4303 11.4187L4.03327 3.76283C4.1916 3.29642 4.41326 3.0832 4.81859 3.0832C5.22392 3.0832 5.44559 3.29642 5.60392 3.76283L8.20689 11.4187C8.25755 11.5653 8.28922 11.7052 8.28922 11.8318C8.28922 12.145 8.08022 12.3382 7.75722 12.3382C7.45323 12.3382 7.28223 12.185 7.1619 11.7918L6.43357 9.51972H3.19728L2.46895 11.7918C2.34862 12.1916 2.17762 12.3382 1.87363 12.3382ZM3.49494 8.58023H6.13591L4.83759 4.52909H4.79326L3.49494 8.58023Z" fill="#2F2F2F"/>
<path d="M13.6701 11.3338C13.3146 11.9863 12.7107 12.3382 11.9602 12.3382C10.8033 12.3382 10.0245 11.5065 10.0245 10.2718C10.0245 9.0499 10.8089 8.2886 12.1126 8.2886H13.6814V7.63606C13.6814 6.77241 13.2243 6.33098 12.3721 6.33098C11.8699 6.33098 11.5313 6.5293 11.1758 6.98992C11.0403 7.16905 10.9105 7.23302 10.7356 7.23302C10.5099 7.23302 10.3575 7.06029 10.3575 6.79799C10.3575 6.42054 10.5889 6.04949 11.0629 5.74241C11.4071 5.5185 11.853 5.39695 12.4342 5.39695C13.862 5.39695 14.652 6.19024 14.652 7.62967V11.6857C14.652 12.0695 14.4771 12.2934 14.178 12.2934C13.8902 12.2934 13.7209 12.0759 13.7096 11.7112V11.3338H13.6701ZM11.0178 10.2462C11.0178 10.9436 11.5031 11.417 12.2254 11.417C13.0437 11.417 13.6814 10.7772 13.6814 9.93915V9.17785H12.1633C11.4354 9.17785 11.0178 9.5617 11.0178 10.2462Z" fill="#2F2F2F"/>
<path d="M6.68722 9.17261L6.76404 9.41438L7.49161 11.6852L7.49387 11.6897C7.54654 11.8618 7.59604 11.93 7.62492 11.9563C7.6416 11.9715 7.67021 11.9902 7.75823 11.9902C7.84982 11.99 7.88991 11.9638 7.9051 11.9496C7.91779 11.9376 7.9412 11.9084 7.94125 11.8321C7.94125 11.7595 7.92232 11.6598 7.87799 11.5316L5.27502 3.87403C5.20454 3.66654 5.13472 3.56202 5.07392 3.50799C5.02392 3.46366 4.95456 3.43117 4.81859 3.43117C4.68263 3.43117 4.61327 3.46366 4.56327 3.50799C4.50246 3.56202 4.43265 3.66654 4.36217 3.87403L1.7592 11.5293C1.71203 11.6789 1.69593 11.7625 1.69593 11.8388C1.69601 11.9098 1.71679 11.9395 1.72983 11.9518C1.74535 11.9663 1.78703 11.9902 1.87444 11.9902C1.96505 11.9901 1.99269 11.9721 2.00775 11.9586C2.03491 11.934 2.08377 11.8672 2.13654 11.692L2.1388 11.6852L2.86637 9.41438L2.94319 9.17261H6.68722ZM13.3347 9.93859V9.5251H12.1643C11.8583 9.5251 11.6666 9.60599 11.5542 9.71038C11.4458 9.8112 11.3645 9.97589 11.3644 10.2459C11.3644 10.5114 11.4556 10.7116 11.5926 10.8447C11.7305 10.9784 11.9414 11.0706 12.2253 11.0706C12.8482 11.0706 13.3347 10.5887 13.3347 9.93859ZM5.08974 4.18133L5.16882 4.4231L6.46578 8.47442L6.61265 8.92632H3.02001L4.46385 4.4231L4.54067 4.18133H5.08974ZM3.96901 8.23265H5.66139L4.81407 5.59579L3.96901 8.23265ZM8.63719 11.8321C8.63713 12.0686 8.55434 12.2928 8.38186 12.4557C8.212 12.6156 7.98766 12.686 7.75823 12.6862C7.54289 12.6862 7.33201 12.6286 7.1572 12.4693C6.9945 12.3207 6.89722 12.1141 6.82957 11.8931L6.17882 9.86628H3.45158L2.79858 11.8886L2.80084 11.8908C2.73338 12.115 2.63727 12.3229 2.47321 12.4715C2.29689 12.631 2.0862 12.686 1.87444 12.6862C1.64577 12.6862 1.42144 12.6145 1.25307 12.4557C1.08287 12.2949 1.00009 12.0738 1 11.8388C1 11.65 1.04675 11.481 1.09942 11.3146L1.10168 11.3079L3.70465 3.65034L3.77695 3.4628C3.85657 3.27973 3.9593 3.11523 4.10232 2.9883C4.30407 2.80942 4.54923 2.73523 4.81859 2.73523C5.08795 2.73523 5.33312 2.80942 5.53486 2.9883C5.7253 3.15731 5.84491 3.39246 5.93254 3.65034L8.53551 11.3056L8.60781 11.5632C8.62595 11.6514 8.63719 11.742 8.63719 11.8321ZM10.011 6.79785C10.011 6.26248 10.3409 5.79662 10.8741 5.45118L11.204 5.27494C11.5533 5.12423 11.9615 5.04909 12.4332 5.04898C13.2099 5.04898 13.865 5.26696 14.3244 5.7291C14.7834 6.19088 14.9999 6.84809 15 7.62936V11.6852C15 11.9241 14.9457 12.162 14.8012 12.3472C14.6476 12.544 14.4226 12.641 14.1775 12.641C13.9371 12.6409 13.7203 12.5445 13.5697 12.3563C13.5193 12.2931 13.4805 12.222 13.45 12.1484C13.0485 12.4958 12.5404 12.686 11.9609 12.6862C11.2957 12.6862 10.7156 12.4446 10.3047 12.0061C9.89567 11.5693 9.67657 10.9613 9.67657 10.2707C9.6768 9.58411 9.9011 8.99176 10.3409 8.57158C10.779 8.15309 11.3938 7.94121 12.1123 7.94117H13.3347V7.63614C13.3347 7.26287 13.236 7.0388 13.102 6.90631C12.9673 6.77326 12.7415 6.6781 12.3722 6.6781C12.1704 6.6781 12.0207 6.71739 11.8886 6.79107C11.7525 6.8671 11.6106 6.99057 11.4503 7.19779L11.4525 7.20005C11.3656 7.315 11.264 7.41575 11.1362 7.48475C11.0048 7.55556 10.8687 7.57956 10.7363 7.57965C10.5292 7.57965 10.3367 7.49795 10.2008 7.3424C10.0684 7.19077 10.011 6.9948 10.011 6.79785ZM10.7205 6.88372C10.7205 6.88372 10.7259 6.88597 10.7363 6.88597C10.7781 6.8859 10.7956 6.87822 10.8063 6.87242L10.9012 6.77752C11.0955 6.52588 11.3029 6.32344 11.5497 6.18552C11.8014 6.04497 12.0718 5.98443 12.3722 5.98443C12.8548 5.98443 13.2832 6.11028 13.5901 6.41373C13.8974 6.71786 14.0284 7.1459 14.0284 7.63614V8.63484H12.1123C11.5276 8.63489 11.0998 8.80583 10.8199 9.07319C10.542 9.33874 10.3727 9.73646 10.3725 10.2707C10.3725 10.8149 10.5413 11.2438 10.8108 11.5316C11.0786 11.8174 11.4694 11.9902 11.9609 11.9902C12.4233 11.9901 12.8072 11.834 13.0952 11.5361C12.838 11.6769 12.5448 11.7643 12.2253 11.7643C11.7872 11.7643 11.3944 11.6189 11.1091 11.3418C10.823 11.0638 10.6708 10.6777 10.6708 10.2459C10.6708 9.83186 10.7999 9.46411 11.082 9.20198C11.3604 8.94331 11.7423 8.83142 12.1643 8.83142H14.0284V9.93859C14.0284 10.3325 13.9105 10.6924 13.7098 10.987H14.0578V11.7123C14.0635 11.8405 14.0948 11.9009 14.112 11.9224C14.1194 11.9317 14.1249 11.9358 14.1301 11.9383C14.1359 11.9409 14.1501 11.9472 14.1775 11.9473C14.207 11.9473 14.224 11.9417 14.2318 11.9383C14.2383 11.9352 14.2466 11.9301 14.2544 11.9202C14.2721 11.8972 14.3041 11.8296 14.3041 11.6852V7.62936C14.304 6.9715 14.1247 6.51177 13.8318 6.21716C13.5392 5.92328 13.0836 5.74492 12.4332 5.74492C11.9008 5.74506 11.5252 5.85605 11.2515 6.03413C10.837 6.30269 10.7047 6.57849 10.7046 6.79785C10.7046 6.85095 10.7157 6.87624 10.7205 6.88372Z" fill="#2F2F2F"/>
</svg>
