<svg width="16" height="16" viewBox="0 0 16 16" fill="none" xmlns="http://www.w3.org/2000/svg">
<path d="M8.48168 6.79694C8.18249 6.9943 7.81744 6.9943 7.51825 6.79694L7.37504 6.68171L3.31303 2.78154C2.95369 2.43655 2.89536 1.80661 3.18284 1.37537C3.47031 0.944129 3.99523 0.874136 4.35457 1.21913L7.99997 4.72088L11.6454 1.21913C12.0047 0.874136 12.5296 0.94413 12.8171 1.37537C13.1046 1.80661 13.0462 2.43655 12.6869 2.78154L8.62489 6.68171L8.48168 6.79694Z" fill="#2F2F2F"/>
<path d="M7.51825 9.20306C7.81744 9.0057 8.18249 9.0057 8.48168 9.20306L8.62489 9.31829L12.6869 13.2185C13.0462 13.5635 13.1046 14.1934 12.8171 14.6246C12.5296 15.0559 12.0047 15.1259 11.6454 14.7809L7.99997 11.2791L4.35457 14.7809C3.99523 15.1259 3.47031 15.0559 3.18284 14.6246C2.89536 14.1934 2.95369 13.5634 3.31303 13.2185L7.37504 9.31829L7.51825 9.20306Z" fill="#2F2F2F"/>
</svg>
