<svg width="16" height="16" viewBox="0 0 16 16" fill="none" xmlns="http://www.w3.org/2000/svg">
<path d="M8.67443 13.6284C8.25555 13.8586 7.74445 13.8586 7.32556 13.6284L7.12506 13.4939L1.43792 8.94376C0.934818 8.54128 0.853159 7.80635 1.25564 7.30325C1.65813 6.80014 2.39306 6.71848 2.89616 7.12097L8 11.2063L13.1038 7.12097C13.6069 6.71848 14.3419 6.80014 14.7444 7.30325C15.1468 7.80636 15.0652 8.54128 14.5621 8.94377L8.87494 13.4939L8.67443 13.6284Z" fill="#2F2F2F"/>
<path d="M8.67444 8.96199C8.25555 9.19224 7.74445 9.19224 7.32556 8.96199L7.12506 8.82756L1.43792 4.2774C0.934818 3.87491 0.85316 3.13999 1.25564 2.63688C1.65813 2.13377 2.39306 2.05212 2.89616 2.4546L8 6.53995L13.1038 2.4546C13.6069 2.05212 14.3419 2.13378 14.7444 2.63688C15.1468 3.13999 15.0652 3.87492 14.5621 4.2774L8.87494 8.82756L8.67444 8.96199Z" fill="#2F2F2F"/>
</svg>
