<svg width="16" height="16" viewBox="0 0 16 16" fill="none" xmlns="http://www.w3.org/2000/svg">
<path d="M3.1775 8.81498C3.27783 9.30657 3.71342 9.67629 4.23466 9.67629H8.54753L8.76444 9.65523C9.18602 9.56919 9.51865 9.23655 9.60469 8.81498L9.62575 8.59807V4.28519C9.62575 3.76395 9.25604 3.32837 8.76444 3.22803L8.54753 3.20698V1.05054C10.334 1.05054 11.7822 2.49874 11.7822 4.28519V8.59807C11.7822 10.3845 10.334 11.8327 8.54753 11.8327H4.23466C2.55983 11.8327 1.18246 10.5598 1.01685 8.9287L1 8.59807V4.28519C1 2.49874 2.44821 1.05054 4.23466 1.05054V3.20698C3.63917 3.20698 3.15644 3.68971 3.15644 4.28519V8.59807L3.1775 8.81498ZM8.54753 1.05054V3.20698H4.23466V1.05054H8.54753Z" fill="#2F2F2F"/>
<path d="M6.39531 11.9317C6.49564 12.4233 6.93123 12.793 7.45247 12.793H11.7653L11.9823 12.772C12.4038 12.6859 12.7365 12.3533 12.8225 11.9317L12.8436 11.7148V7.40192C12.8436 6.88068 12.4738 6.44509 11.9823 6.34476L11.7653 6.3237V4.16726C13.5518 4.16726 15 5.61547 15 7.40192V11.7148C15 13.5012 13.5518 14.9495 11.7653 14.9495H7.45247C5.77764 14.9495 4.40027 13.6766 4.23466 12.0454L4.21781 11.7148V7.40192C4.21781 5.61547 5.66602 4.16726 7.45247 4.16726V6.3237C6.85698 6.3237 6.37425 6.80644 6.37425 7.40192V11.7148L6.39531 11.9317ZM11.7653 4.16726V6.3237H7.45247V4.16726H11.7653Z" fill="#2F2F2F"/>
</svg>
