<svg width="16" height="16" viewBox="0 0 16 16" fill="none" xmlns="http://www.w3.org/2000/svg">
<path d="M7.51456 1.1492C7.81614 0.950267 8.1841 0.950267 8.48568 1.1492L8.63004 1.26535L12.7245 5.19668C13.0867 5.54443 13.1455 6.17941 12.8557 6.61409C12.566 7.04877 12.0369 7.11933 11.6746 6.77158L8.00012 3.24184L4.3256 6.77158C3.96338 7.11933 3.43427 7.04877 3.1445 6.61409C2.85473 6.17941 2.91352 5.54443 3.27573 5.19668L7.3702 1.26535L7.51456 1.1492Z" fill="#2F2F2F"/>
<path d="M8.48568 14.8508C8.1841 15.0497 7.81614 15.0497 7.51456 14.8508L7.3702 14.7347L3.27573 10.8033C2.91352 10.4556 2.85473 9.82059 3.1445 9.38591C3.43427 8.95123 3.96338 8.88067 4.3256 9.22842L8.00012 12.7582L11.6746 9.22842C12.0369 8.88067 12.566 8.95122 12.8557 9.38591C13.1455 9.82059 13.0867 10.4556 12.7245 10.8033L8.63004 14.7347L8.48568 14.8508Z" fill="#2F2F2F"/>
</svg>
