<svg width="15" height="17" viewBox="0 0 15 17" fill="none" xmlns="http://www.w3.org/2000/svg">
<path d="M10.682 11.682C12.4393 9.92462 12.4393 7.07538 10.682 5.31802C8.92462 3.56066 6.07538 3.56066 4.31802 5.31802C2.56066 7.07538 2.56066 9.92462 4.31802 11.682L2.90381 13.0962C0.365398 10.5578 0.365398 6.44221 2.90381 3.90381C5.44221 1.3654 9.55779 1.3654 12.0962 3.90381C14.6346 6.44221 14.6346 10.5578 12.0962 13.0962C9.55779 15.6346 5.44221 15.6346 2.90381 13.0962L4.31802 11.682C6.07538 13.4393 8.92462 13.4393 10.682 11.682Z" fill="#2F2F2F"/>
<path d="M4.31802 13.0962L2.90381 11.682L10.682 3.90381L12.0962 5.31802L4.31802 13.0962Z" fill="#2F2F2F"/>
</svg>
