<svg width="16" height="16" viewBox="0 0 16 16" fill="none" xmlns="http://www.w3.org/2000/svg">
<path d="M8.00011 7.16667L8.17981 7.18294C8.58696 7.26056 8.89336 7.59721 8.89336 8C8.89336 8.40279 8.58696 8.73944 8.17981 8.81706L8.00011 8.83333H3.89325C3.39992 8.83333 3 8.46024 3 8C3 7.53976 3.39992 7.16667 3.89325 7.16667H8.00011Z" fill="#2F2F2F"/>
<path d="M7.10664 3.83333C7.10664 3.3731 7.50656 3 7.99989 3C8.49322 3 8.89314 3.3731 8.89314 3.83333L8.89314 12.1667C8.89314 12.6269 8.49322 13 7.99989 13C7.50656 13 7.10664 12.6269 7.10664 12.1667L7.10664 3.83333Z" fill="#2F2F2F"/>
<path d="M12.1067 7.16667L12.2864 7.18294C12.6936 7.26056 13 7.59721 13 8C13 8.40279 12.6936 8.73944 12.2864 8.81706L12.1067 8.83333H8.00011C7.50678 8.83333 7.10664 8.46024 7.10664 8C7.10664 7.53976 7.50678 7.16667 8.00011 7.16667H12.1067Z" fill="#2F2F2F"/>
</svg>
