<svg width="16" height="16" viewBox="0 0 16 16" fill="none" xmlns="http://www.w3.org/2000/svg">
<path d="M10 2C10.5523 2 11 2.44772 11 3C11 3.55228 10.5523 4 10 4H6C5.44772 4 5 3.55228 5 3C5 2.44772 5.44772 2 6 2H10Z" fill="#2F2F2F"/>
<path d="M12 5C12.5523 5 13 5.44772 13 6C13 6.55228 12.5523 7 12 7H4C3.44772 7 3 6.55228 3 6C3 5.44772 3.44772 5 4 5H12Z" fill="#2F2F2F"/>
<path d="M4.14286 11V7H6.14286V11C6.14286 11.5523 6.59057 12 7.14286 12H8.8577C9.40973 11.9997 9.8577 11.5521 9.8577 11V7H11.8577V11C11.8577 12.6567 10.5143 13.9997 8.8577 14H7.14286C5.486 14 4.14286 12.6569 4.14286 11Z" fill="#2F2F2F"/>
</svg>
