<svg width="16" height="16" viewBox="0 0 16 16" fill="none" xmlns="http://www.w3.org/2000/svg">
<path d="M7.32557 2.37164C7.74445 2.1414 8.25555 2.14139 8.67444 2.37164L8.87494 2.50607L14.5621 7.05624C15.0652 7.45872 15.1468 8.19365 14.7444 8.69675C14.3419 9.19986 13.6069 9.28152 13.1038 8.87903L8 4.79369L2.89616 8.87903C2.39306 9.28152 1.65813 9.19986 1.25564 8.69675C0.85316 8.19365 0.934818 7.45872 1.43792 7.05623L7.12506 2.50607L7.32557 2.37164Z" fill="#2F2F2F"/>
<path d="M7.32557 7.03801C7.74445 6.80776 8.25555 6.80776 8.67444 7.03801L8.87494 7.17244L14.5621 11.7226C15.0652 12.1251 15.1468 12.86 14.7444 13.3631C14.3419 13.8662 13.6069 13.9479 13.1038 13.5454L8 9.46005L2.89616 13.5454C2.39306 13.9479 1.65813 13.8662 1.25564 13.3631C0.85316 12.86 0.934818 12.1251 1.43792 11.7226L7.12506 7.17244L7.32557 7.03801Z" fill="#2F2F2F"/>
</svg>
